<?xml version="1.0" encoding="utf-8"?>
<!-- Generator: Adobe Illustrator 16.0.0, SVG Export Plug-In . SVG Version: 6.00 Build 0)  -->
<!DOCTYPE svg PUBLIC "-//W3C//DTD SVG 1.1//EN" "http://www.w3.org/Graphics/SVG/1.1/DTD/svg11.dtd">
<svg version="1.1" id="Layer_1" xmlns="http://www.w3.org/2000/svg" xmlns:xlink="http://www.w3.org/1999/xlink" x="0px" y="0px"
	 width="24px" height="24px" viewBox="0 0 24 24" enable-background="new 0 0 24 24" xml:space="preserve">
<path fill="#FFFFFF" d="M11.876-0.006c0.082,0,0.165,0,0.248,0c0.07,0.011,0.142,0.022,0.212,0.033
	c0.492,0.075,0.911,0.29,1.275,0.631c0.554,0.518,1.224,0.827,1.943,1.034c0.547,0.158,1.104,0.237,1.675,0.19
	c0.226-0.019,0.454-0.04,0.679-0.021c0.97,0.08,1.822,0.836,2.009,1.796c0.119,0.61,0.358,1.164,0.697,1.677
	c0.448,0.68,1,1.248,1.721,1.652c0.94,0.528,1.369,1.679,1.025,2.704c-0.075,0.225-0.188,0.437-0.265,0.661
	c-0.213,0.632-0.275,1.284-0.234,1.947c0.034,0.565,0.139,1.114,0.384,1.629c0.178,0.373,0.259,0.762,0.222,1.173
	c-0.07,0.792-0.434,1.415-1.123,1.813c-0.541,0.312-1.003,0.705-1.389,1.19c-0.507,0.636-0.878,1.335-1.039,2.145
	c-0.209,1.053-1.162,1.813-2.233,1.809c-0.196,0-0.392-0.03-0.588-0.04c-0.574-0.029-1.133,0.065-1.679,0.238
	c-0.705,0.223-1.341,0.561-1.893,1.066c-0.859,0.788-2.205,0.781-3.064-0.009c-0.436-0.4-0.928-0.701-1.476-0.914
	c-0.748-0.291-1.517-0.448-2.325-0.364c-0.214,0.022-0.435,0.026-0.648,0.001c-0.917-0.108-1.711-0.811-1.911-1.711
	c-0.125-0.565-0.312-1.1-0.616-1.591c-0.467-0.752-1.051-1.382-1.835-1.821c-0.884-0.496-1.32-1.573-1.053-2.553
	c0.065-0.24,0.183-0.467,0.27-0.702c0.232-0.627,0.299-1.278,0.274-1.942c-0.022-0.607-0.132-1.197-0.396-1.751
	C0.627,9.722,0.548,9.47,0.531,9.202C0.469,8.248,0.822,7.486,1.648,6.997C2.266,6.63,2.78,6.167,3.201,5.593
	c0.416-0.567,0.727-1.183,0.866-1.88c0.194-0.973,0.91-1.662,1.891-1.84C6.222,1.824,6.484,1.849,6.75,1.877
	C7.334,1.939,7.905,1.85,8.464,1.685c0.75-0.22,1.436-0.558,2.008-1.105c0.267-0.254,0.589-0.418,0.949-0.503
	C11.57,0.042,11.724,0.021,11.876-0.006z M6.731,16.867c0.003,0,0.006,0,0.009,0c0,0.104-0.006,0.207,0.001,0.31
	c0.06,0.819,0.72,1.336,1.52,1.162c0.311-0.066,0.612-0.187,0.907-0.308c0.771-0.315,1.551-0.583,2.397-0.615
	c0.926-0.035,1.829,0.041,2.696,0.397c0.42,0.173,0.845,0.338,1.274,0.482c0.364,0.123,0.737,0.122,1.083-0.071
	c0.449-0.25,0.627-0.668,0.637-1.156c0.009-0.378-0.015-0.758-0.047-1.136c-0.055-0.63-0.033-1.252,0.112-1.869
	c0.2-0.845,0.498-1.65,1.015-2.356c0.281-0.383,0.601-0.737,0.895-1.112c0.131-0.167,0.263-0.341,0.355-0.53
	c0.226-0.464,0.214-0.92-0.129-1.334c-0.173-0.209-0.397-0.354-0.654-0.437c-0.271-0.088-0.548-0.159-0.824-0.231
	c-0.583-0.153-1.169-0.291-1.705-0.584c-0.858-0.472-1.632-1.048-2.215-1.845c-0.312-0.428-0.578-0.89-0.873-1.331
	c-0.091-0.137-0.196-0.268-0.313-0.383c-0.421-0.415-0.974-0.495-1.458-0.221c-0.211,0.12-0.385,0.282-0.521,0.48
	c-0.162,0.235-0.323,0.473-0.468,0.719C9.989,5.64,9.453,6.292,8.758,6.81c-0.618,0.46-1.27,0.854-2.019,1.062
	c-0.375,0.104-0.752,0.2-1.129,0.295C5.292,8.248,4.979,8.341,4.718,8.555C4.38,8.833,4.216,9.185,4.273,9.629
	c0.042,0.322,0.189,0.595,0.388,0.843c0.185,0.231,0.368,0.465,0.564,0.688c0.491,0.556,0.876,1.175,1.135,1.872
	c0.279,0.751,0.474,1.521,0.454,2.328C6.801,15.863,6.76,16.365,6.731,16.867z"/>
<path fill="none" d="M11.876-0.006c-0.152,0.027-0.306,0.048-0.455,0.083c-0.359,0.085-0.682,0.249-0.949,0.503
	C9.9,1.127,9.213,1.465,8.464,1.685C7.905,1.85,7.334,1.939,6.75,1.877C6.484,1.849,6.222,1.824,5.957,1.873
	C4.976,2.051,4.26,2.74,4.066,3.713c-0.139,0.698-0.45,1.313-0.866,1.88C2.78,6.167,2.266,6.63,1.648,6.997
	c-0.826,0.489-1.179,1.25-1.117,2.205c0.018,0.268,0.097,0.52,0.211,0.762c0.264,0.554,0.373,1.144,0.396,1.751
	c0.025,0.664-0.042,1.315-0.274,1.942c-0.087,0.235-0.204,0.462-0.27,0.702c-0.267,0.979,0.169,2.057,1.053,2.553
	c0.785,0.439,1.369,1.069,1.835,1.821c0.305,0.491,0.491,1.025,0.616,1.591c0.2,0.9,0.995,1.603,1.911,1.711
	c0.213,0.025,0.434,0.021,0.648-0.001c0.809-0.084,1.578,0.073,2.325,0.364c0.548,0.213,1.04,0.514,1.476,0.914
	c0.859,0.79,2.205,0.797,3.064,0.009c0.552-0.506,1.188-0.844,1.893-1.066c0.546-0.173,1.104-0.268,1.679-0.238
	c0.196,0.01,0.392,0.04,0.588,0.04c1.071,0.005,2.024-0.756,2.233-1.809c0.161-0.81,0.532-1.509,1.039-2.145
	c0.386-0.485,0.848-0.878,1.389-1.19c0.689-0.398,1.053-1.021,1.123-1.813c0.037-0.411-0.044-0.8-0.222-1.173
	c-0.245-0.515-0.35-1.063-0.384-1.629c-0.041-0.663,0.021-1.315,0.234-1.947c0.076-0.225,0.189-0.437,0.265-0.661
	c0.344-1.025-0.085-2.176-1.025-2.704c-0.721-0.404-1.272-0.973-1.721-1.652c-0.339-0.513-0.578-1.067-0.697-1.677
	c-0.187-0.96-1.039-1.716-2.009-1.796c-0.225-0.019-0.453,0.002-0.679,0.021c-0.571,0.047-1.128-0.032-1.675-0.19
	c-0.72-0.208-1.39-0.516-1.943-1.034c-0.364-0.341-0.783-0.556-1.275-0.631c-0.07-0.011-0.142-0.022-0.212-0.033
	c3.829,0,7.659,0,11.488,0c0,8.004,0,16.008,0,24.012c-7.741,0-15.483,0-23.225,0c0-8.004,0-16.008,0-24.012
	C4.217-0.006,8.046-0.006,11.876-0.006z"/>
<path fill="none" d="M6.731,16.867c0.028-0.502,0.07-1.004,0.083-1.507c0.021-0.808-0.174-1.577-0.454-2.328
	c-0.259-0.697-0.644-1.316-1.135-1.872c-0.196-0.223-0.379-0.457-0.564-0.688c-0.199-0.249-0.347-0.521-0.388-0.843
	C4.216,9.185,4.38,8.833,4.718,8.555c0.26-0.214,0.573-0.308,0.892-0.388C5.988,8.072,6.365,7.976,6.74,7.872
	C7.488,7.664,8.141,7.271,8.758,6.81c0.694-0.518,1.23-1.17,1.667-1.913c0.145-0.246,0.306-0.484,0.468-0.719
	c0.137-0.198,0.311-0.36,0.521-0.48c0.484-0.274,1.037-0.193,1.458,0.221c0.117,0.115,0.223,0.246,0.313,0.383
	c0.295,0.441,0.561,0.903,0.873,1.331c0.583,0.797,1.356,1.374,2.215,1.845c0.536,0.294,1.122,0.431,1.705,0.584
	c0.276,0.072,0.554,0.143,0.824,0.231c0.257,0.083,0.481,0.227,0.654,0.437c0.343,0.415,0.354,0.87,0.129,1.334
	c-0.093,0.189-0.225,0.363-0.355,0.53c-0.294,0.375-0.613,0.729-0.895,1.112c-0.517,0.706-0.814,1.512-1.015,2.356
	c-0.146,0.617-0.167,1.239-0.112,1.869c0.032,0.378,0.056,0.758,0.047,1.136c-0.01,0.488-0.188,0.906-0.637,1.156
	c-0.346,0.193-0.719,0.194-1.083,0.071c-0.43-0.145-0.854-0.31-1.274-0.482c-0.867-0.356-1.771-0.433-2.696-0.397
	c-0.847,0.032-1.626,0.3-2.397,0.615c-0.295,0.121-0.597,0.241-0.907,0.308c-0.8,0.174-1.46-0.343-1.52-1.162
	c-0.007-0.103-0.001-0.206-0.001-0.31C6.737,16.867,6.734,16.867,6.731,16.867z"/>
</svg>
